<svg xmlns="http://www.w3.org/2000/svg" viewBox="150 180 550 200" width="64" height="64">
  <defs>
    <style>
      .st0 { fill: #8dc63f; }
      .st1 { fill: #fff; }
      .st2 { fill: #00945e; }
      .st3 { fill: #898a8d; }
    </style>
  </defs>
  <path class="st3" d="M638.47,179.17H188.91c-15.27,0-27.65,7.44-27.65,16.62v92.2c38.98,8.94,78.14,17.23,117.49,24.39,46.99,8.54,93.86,15.1,139.78,18.97,45.91,3.94,90.94,4.98,133.77,3.31,40.18-1.56,78.34-5.42,113.81-10.53,0,0,0,0,.01,0v-128.34c0-9.18-12.38-16.62-27.65-16.62Z"/>
  <path class="st2" d="M644.04,340.19c-245.68,58.22-483.2-16.82-483.2-16.82,0,0,134.4,73.74,368.72,56.69,46.04-3.35,91.35-10.79,136.54-24.19v-20.74c-7.26,1.6-14.61,3.29-22.06,5.06Z"/>
  <path class="st0" d="M418.21,336.94c-45.91-3.2-92.66-10.43-139.58-18.97-39.29-7.16-78.47-15.59-117.4-24.53v23.73s0,.08,0,.08c97.14,23.74,180.4,35.47,255.13,37.31,1.3.03,27.75.53,29.04.53,133.14-.8,210.47-23.75,220.69-26.12-34.18,4.8-121.1,16.8-247.89,7.97Z"/>
</svg>
